<?xml version="1.0" standalone="yes"?>
<svg xmlns="http://www.w3.org/2000/svg" width="400" height="400">
<path style="fill:#010101; stroke:none;" d="M0 0L0 400L400 400L400 0L0 0z"/>
<path style="fill:#e0dbdf; stroke:none;" d="M182 129L181 129C169.073 118.278 146.104 125.486 140.84 140C135.739 154.063 141.364 164.367 150 175C140.064 175.812 129.788 178.211 120.004 180.207C117.842 180.648 111.069 181.063 111.907 184.737C112.734 188.368 120.811 185.384 123 184.881C134.55 182.226 147.647 182.036 158 176C160.874 184.419 179.615 190.947 187 195.691C189.599 197.36 193.455 200.807 196.816 199.632C200.451 198.361 202.495 192.903 204.594 190C209.852 182.726 216.061 173.007 223.174 167.447C233.165 159.637 254.771 160.164 267 157C265.399 152.178 261.363 153.043 257 153.754C247.425 155.314 237.237 157.054 228 160C230.786 153.174 233.276 146.45 231.215 139C224.859 116.034 196.481 108.627 182 129z"/>
<path style="fill:#158eb5; stroke:none;" d="M202 118L203 119L202 118z"/>
<path style="fill:#297a9b; stroke:none;" d="M194 121L194 122C207.887 119.647 211.655 121.638 224 128C216.499 118.223 205.002 116.327 194 121z"/>
<path style="fill:#158eb5; stroke:none;" d="M208.667 118.333L209.333 118.667L208.667 118.333M197 119L198 120L197 119M192 121L189 125L190 123L189 123L184 129L185 127L184 127L183 129L191 134L192 144L194 150L196 149L196 150C195.284 152.168 194.706 153.031 197 153L196 156C199.183 156 197.69 158.615 197 161L212.914 163.683L226 161L227 159C226.492 155.953 226.413 154.353 229 155L230 153L230 139C226.609 139 224.755 131.103 225 128L207 119.529L192 121M213 119L214 120L213 119M194 120L195 121L194 120M215 120L216 121L215 120z"/>
<path style="fill:#297a9b; stroke:none;" d="M189 125L193 122L189 125z"/>
<path style="fill:#158eb5; stroke:none;" d="M218 122L219 123L218 122M219 123L220 124L219 123z"/>
<path style="fill:#297a9b; stroke:none;" d="M184 129L189 125L184 129z"/>
<path style="fill:#d21718; stroke:none;" d="M174 172L175 160L190 180C192.23 174.288 189.253 164.988 188.245 159C186.951 151.303 186.186 136.517 181.157 130.419C177.671 126.192 170 126.001 165 126.002C142.157 126.003 129.495 160.524 151.004 172.812C158.723 177.223 165.9 169.095 174 172z"/>
<path style="fill:#297a9b; stroke:none;" d="M183 129L187 155L188 155C187.684 147.644 187.908 134.644 183 129M224 129L228 140L229 140L224 129z"/>
<path style="fill:#e0dbdf; stroke:none;" d="M186 133L186 142L187 142L187 134L188 134L191 144L192 144C191.573 139.141 190.489 135.349 186 133z"/>
<path style="fill:#158eb5; stroke:none;" d="M227 133L228 134L227 133z"/>
<path style="fill:#010101; stroke:none;" d="M187 134L189 158L190 158C189.677 150.475 192.184 139.882 187 134z"/>
<path style="fill:#297a9b; stroke:none;" d="M190 134L192 142L193 142L190 134z"/>
<path style="fill:#158eb5; stroke:none;" d="M191 139L192 140L191 139z"/>
<path style="fill:#297a9b; stroke:none;" d="M229 140L230 141L229 140z"/>
<path style="fill:#010101; stroke:none;" d="M191 144L192 145L191 144z"/>
<path style="fill:#297a9b; stroke:none;" d="M193 144L194 149L195 149L193 144M190 146C190.045 149.677 190.042 161.354 194 162L194 165L192 164L193 175L194 175L194 167L195 167L198 172L190 146M229 147L229 152L230 152L231 147L229 147z"/>
<path style="fill:#e0dbdf; stroke:none;" d="M187.333 148.667L187.667 149.333L187.333 148.667z"/>
<path style="fill:#158eb5; stroke:none;" d="M230 148L231 149L230 148z"/>
<path style="fill:#297a9b; stroke:none;" d="M195.333 149.667L195.667 150.333L195.333 149.667z"/>
<path style="fill:#e0dbdf; stroke:none;" d="M188 153L188 158L189 158L188 153z"/>
<path style="fill:#297a9b; stroke:none;" d="M196.333 153.667L196.667 154.333L196.333 153.667M228 153L229 154L228 153M227 154L226 158L227 158L227 154M216 162L216 163L225 162L224 164L253 158.389L265 154L216 162M197 155L197 160L198 160L197 155z"/>
<path style="fill:#158eb5; stroke:none;" d="M257 155L258 156L257 155M262 156L263 157L262 156M193.333 157.667L193.667 158.333L193.333 157.667M257 157L258 158L257 157z"/>
<path style="fill:#297a9b; stroke:none;" d="M188 158L188 161L189 161L188 158z"/>
<path style="fill:#158eb5; stroke:none;" d="M191 158L192 159L191 158z"/>
<path style="fill:#297a9b; stroke:none;" d="M225 159L226 160L225 159z"/>
<path style="fill:#158eb5; stroke:none;" d="M246 159L247 160L246 159z"/>
<path style="fill:#e0dbdf; stroke:none;" d="M175 160L173 174L176 173L173 176L173 177L178 171C185.077 174.281 185.627 180.601 189 187L190 187L188 180L189 180L189 182C191.03 174.6 180.983 163.207 175 160z"/>
<path style="fill:#158eb5; stroke:none;" d="M194 160L195 161L194 160z"/>
<path style="fill:#297a9b; stroke:none;" d="M198 160L199 167L200 167L202 161L198 160M202 160L203 161L202 160z"/>
<path style="fill:#158eb5; stroke:none;" d="M232 160L233 161L232 160z"/>
<path style="fill:#010101; stroke:none;" d="M190.333 161.667L190.667 162.333L190.333 161.667z"/>
<path style="fill:#297a9b; stroke:none;" d="M206 161L211 164L211 163L206 161z"/>
<path style="fill:#158eb5; stroke:none;" d="M227 161L228 162L227 161M237 161L238 162L237 161z"/>
<path style="fill:#010101; stroke:none;" d="M176 162L176 169L179 168L185 172L184 169L180 170L176 162z"/>
<path style="fill:#158eb5; stroke:none;" d="M193 162L194 165L193 162M198.333 162.667L198.667 163.333L198.333 162.667M201 162L202 163L201 162z"/>
<path style="fill:#010101; stroke:none;" d="M204 163L205 164L204 163z"/>
<path style="fill:#158eb5; stroke:none;" d="M195 164L196 165L195 164z"/>
<path style="fill:#010101; stroke:none;" d="M205 164L206 165L205 164M206 165L206 166L209 166L206 165z"/>
<path style="fill:#297a9b; stroke:none;" d="M203 169L219 169L221 165L203 169z"/>
<path style="fill:#158eb5; stroke:none;" d="M205 166L206 167L205 166M213 166L214 167L213 166M192 167L193 168L192 167M194 167L196 184C192.974 186.795 195.952 191.524 197 195L198 195L198 192L203 191L203 190L201 191L201 190L205 188L210 179L209 181L210 181L216 173L215 171L219 170C215.742 165.535 207.249 168.414 202 168L196 172L194 167M208 167L209 168L208 167z"/>
<path style="fill:#010101; stroke:none;" d="M198 168L200 170L198 168z"/>
<path style="fill:#158eb5; stroke:none;" d="M219 168L220 169L219 168z"/>
<path style="fill:#010101; stroke:none;" d="M168.333 170.667L168.667 171.333L168.333 170.667z"/>
<path style="fill:#297a9b; stroke:none;" d="M215 172L218 170L215 172z"/>
<path style="fill:#d21718; stroke:none;" d="M178 171C176.059 175.742 173.766 176.802 170 173L160 177C167.401 185.634 184.652 194.105 195 199L196 198C193.47 190.129 185.943 173.566 178 171z"/>
<path style="fill:#010101; stroke:none;" d="M166.667 172.333L167.333 172.667L166.667 172.333z"/>
<path style="fill:#297a9b; stroke:none;" d="M173 172L174 173L173 172z"/>
<path style="fill:#010101; stroke:none;" d="M172 173L173 174L172 173M175 173L173 176L175 173M162.667 174.333L163.333 174.667L162.667 174.333z"/>
<path style="fill:#297a9b; stroke:none;" d="M212 174L211 178L212 178L214 174L212 174z"/>
<path style="fill:#010101; stroke:none;" d="M158.667 175.333L159.333 175.667L158.667 175.333z"/>
<path style="fill:#158eb5; stroke:none;" d="M213 175L214 176L213 175z"/>
<path style="fill:#d21718; stroke:none;" d="M115 183L115 184L154 177C144.212 173.008 125.453 181.65 115 183z"/>
<path style="fill:#297a9b; stroke:none;" d="M194 176L196 184L194 176M143 177L144 178L143 177M159 177L160 178L159 177M144.667 178.333L145.333 178.667L144.667 178.333M210 178L211 179L210 178M133 179L134 180L133 179z"/>
<path style="fill:#010101; stroke:none;" d="M187 179L188 180L187 179z"/>
<path style="fill:#297a9b; stroke:none;" d="M208 179L207 183L208 183L210 179L208 179z"/>
<path style="fill:#010101; stroke:none;" d="M188 180L193 188L193 181L192 181L192 184L188 180z"/>
<path style="fill:#297a9b; stroke:none;" d="M190.333 180.667L190.667 181.333L190.333 180.667M112 184L112 185L116 185L112 184z"/>
<path style="fill:#d21718; stroke:none;" d="M113 184L114 185L113 184z"/>
<path style="fill:#297a9b; stroke:none;" d="M204 186L205 187L204 186M203 187L201 191L203 187M194 188L195 199L201 192L198 195L197 195L194 188z"/>
<path style="fill:#e0dbdf; stroke:none;" d="M248 193C237.93 202.101 256.774 201.356 248 193M259 206C252.305 206.771 252.199 212.458 259 213L260 240C271.147 237.617 262.103 222.858 265.603 215.184C267.234 211.61 274.353 213.684 274.364 209.162C274.371 206.396 269.953 205.828 268 205C265.586 206.736 266.399 201.76 268.111 200.528C270.803 198.589 276.441 202.739 277.639 198.889C279.2 193.871 271.2 192.589 268 193.25C261.703 194.55 259.099 200.125 259 206z"/>
<path style="fill:#158eb5; stroke:none;" d="M199 194L200 195L199 194z"/>
<path style="fill:#e0dbdf; stroke:none;" d="M78 195C75.1379 204.683 77 216.924 77 227C77 230.221 76.0315 235.685 78.179 238.397C80.1661 240.906 85.2091 240.004 88 240C98.1109 239.984 105.55 238.513 114 233L114 227L115 227C117.456 236.41 125.638 240.632 135 239.906C141.951 239.366 148.784 234.964 144 228C148.199 225.727 148.407 221.458 149 217L153 217C153 222.18 151.76 229.262 154.318 233.957C158.75 242.093 170.537 241.212 176 235L177 235C180.991 239.908 198.212 243.315 203.397 238.346C208.079 233.859 205.713 213.999 201.501 209.709C197.259 205.389 190.527 206.026 185 205C180.547 208.873 173.045 213.179 182 218L182 219C177.456 220.776 174.984 223.165 174 228L166 230L164 217C176.045 216.957 175.953 206.042 164 206C163.742 198.065 159.648 198.868 153 199L152 207C147.366 206.595 146.779 208.727 147 213C133.239 201.285 115.057 204.33 115 225L114 225C113.259 221.68 112.645 217.482 109 217C114.233 207 112.331 202.894 105 195L78 195M210 195C209.239 205.776 209.204 216.235 209.755 227C209.926 230.341 208.704 235.638 211.6 238.172C217.243 243.111 233.937 239.514 241 240C241.502 236.209 241.409 233.473 236.956 233.059C232.348 232.63 219.946 235.648 217.028 231.552C211.273 223.472 223.58 196.058 210 195z"/>
<path style="fill:#d21718; stroke:none;" d="M254 208L261 211L261 238L264 238L264 211L274 211L274 208L264 208C264.704 200.25 268.645 197.386 276 200L277 197C261.974 189.771 264.843 207.173 254 208z"/>
<path style="fill:#158eb5; stroke:none;" d="M198 196L199 197L198 196z"/>
<path style="fill:#d21718; stroke:none;" d="M246 196L246 200L250 196L246 196z"/>
<path style="fill:#297a9b; stroke:none;" d="M79 200L80 200L82 198C79.8603 196.882 79.4732 197.749 79 200z"/>
<path style="fill:#158eb5; stroke:none;" d="M79 198L78 198L78 238L79 238C84.1047 234.576 97.1007 236.905 103 238L103 236C110.558 236.275 110.405 230.418 113 225L113 224L108 213L110 201L106 198C101.404 198.919 84.8407 194.159 79 200L79 198z"/>
<path style="fill:#297a9b; stroke:none;" d="M86 197L86 198L95 198L86 197M98.6667 197.333L99.3333 197.667L98.6667 197.333M211 197L212 198L211 197z"/>
<path style="fill:#d21718; stroke:none;" d="M212 197L211 238L240 238L240 235L215 235L214 197L212 197z"/>
<path style="fill:#297a9b; stroke:none;" d="M104 198L105 199L104 198M214 198L215 199L214 198M105.667 199.333L106.333 199.667L105.667 199.333M107 200L108 201L107 200z"/>
<path style="fill:#158eb5; stroke:none;" d="M154 201C153.859 205.302 153.182 207.462 149 209L150 214L154 214C153.536 217.383 152.542 230.424 156 231L155 234L161.028 237.583L171 238L170 236L174 236L174 235L172 236L174 233L168 230L161 229L164.603 216.317L171.079 211.014L163 201L162 201L161 203C159.199 197.596 156.083 201.521 154 201z"/>
<path style="fill:#297a9b; stroke:none;" d="M261 200L262 201L261 200M155 201L156 202L155 201M160 201L162 203L162 201L160 201M109.333 202.667L109.667 203.333L109.333 202.667M88 204L88 205L95 205L88 204M99 204L101 206L99 204M110 204L110 211L111 211L110 204M155 204L156 205L155 204z"/>
<path style="fill:#e0dbdf; stroke:none;" d="M87 213C89.3326 213 91.6694 213.04 94.0015 212.995C111.112 212.671 87.2143 194.921 87 213z"/>
<path style="fill:#158eb5; stroke:none;" d="M99 205L100 206L99 205z"/>
<path style="fill:#010101; stroke:none;" d="M91.1528 206.827C84.5585 209.355 93.9656 213.134 97.8326 211.397C104.01 208.623 94.3516 205.601 91.1528 206.827z"/>
<path style="fill:#e0dbdf; stroke:none;" d="M243 235C253.68 246.769 252.542 216.834 250.682 210.059C248.266 201.258 244.048 212.392 244.004 216L244 223C244 227.118 243.957 230.981 243 235M298 230C294.496 235.997 287.176 234.441 284 229L281 225L307 224C306.026 219.92 306.137 215.596 303.656 212.043C287.1 188.337 256.465 232.094 287 239.695C290.126 240.473 293.446 240.429 296.576 239.656C303.113 238.042 306.714 230.667 298 230z"/>
<path style="fill:#297a9b; stroke:none;" d="M86 207L86 211L87 211L86 207z"/>
<path style="fill:#158eb5; stroke:none;" d="M127 207C127 210.084 123.695 210.399 121 210L121 213L119 212L120 215L118 214L118 232L120 231L124 235L123 237L139 238L139 236L142 237C143.61 233.291 143.869 230.995 141 228L142 230L141 230C133.948 229.654 130.588 232.374 125 226L147 223L147 219L146 215L144 215L144 214L145 213L141 209L139 208L127 207z"/>
<path style="fill:#297a9b; stroke:none;" d="M128 207L128 208L136 208L128 207z"/>
<path style="fill:#158eb5; stroke:none;" d="M182 211L179 210L179 215C185.179 215.436 190.852 213.68 195 219L179 221L176 224L177 230L176 230L176 228L175 228L178 236L181 238L195 236L195 238L204 238L204 222L203 222L203 226L202 226C202.865 219.163 204.037 212.133 197 208L198 210C193.777 208.421 183.359 204.625 182 211z"/>
<path style="fill:#297a9b; stroke:none;" d="M187 207L187 208L198 210L187 207z"/>
<path style="fill:#d21718; stroke:none;" d="M302 231C292.338 236.298 282.39 236.987 279 224L305 224C304.827 203.355 276.46 201.129 275.471 222C275.089 230.078 280.165 236.697 288 238.47C293.759 239.773 302.105 237.888 302 231z"/>
<path style="fill:#297a9b; stroke:none;" d="M102 208L103 209L102 208z"/>
<path style="fill:#158eb5; stroke:none;" d="M124 208L125 209L124 208z"/>
<path style="fill:#297a9b; stroke:none;" d="M123 209L123 210L128 209L123 209M137 208L138 209L137 208M148 208L148 215L154 215L154 214L150 214L152 209L148 208M165 208L165 209L168 209L165 208M170 208L172 210L172 208L170 208z"/>
<path style="fill:#d21718; stroke:none;" d="M246 208L246 238L249 238L249 208L246 208z"/>
<path style="fill:#297a9b; stroke:none;" d="M139 209L140 210L139 209M180 209L180 211L182 211L182 209L180 209M122 210L123 211L122 210M140 210L144 214L140 210z"/>
<path style="fill:#e0dbdf; stroke:none;" d="M279 220L301 221C300.194 206.279 283.192 208.038 279 220z"/>
<path style="fill:#297a9b; stroke:none;" d="M101.333 211.667L101.667 212.333L101.333 211.667M120.333 211.667L120.667 212.333L120.333 211.667M178 211L178 213L180 213L180 211L178 211z"/>
<path style="fill:#010101; stroke:none;" d="M281 219L300 219C295.834 209.615 284.656 208.367 281 219z"/>
<path style="fill:#297a9b; stroke:none;" d="M108 213L109 214L108 213M119.333 213.667L119.667 214.333L119.333 213.667M171 213L165 214L165 215L171 213M201 213L202 217L203 217L201 213M127 214L126 216L127 214M135 214L138 216L138 215L135 214M144 214L145 215L144 214M189 214L189 215L192 215L189 214M118 215L117 219L118 219L118 215z"/>
<path style="fill:#158eb5; stroke:none;" d="M127 215L128 216L127 215z"/>
<path style="fill:#e0dbdf; stroke:none;" d="M126 219L137 219C135.232 213.674 127.85 213.739 126 219z"/>
<path style="fill:#297a9b; stroke:none;" d="M180 215L180 216L184 216L180 215M194 215L196 217L196 215L194 215z"/>
<path style="fill:#010101; stroke:none;" d="M129 216L129 217L134 217L129 216z"/>
<path style="fill:#297a9b; stroke:none;" d="M138 216L139 217L138 216M145 216L146 217L145 216z"/>
<path style="fill:#010101; stroke:none;" d="M188 216L188 217L191 217L188 216z"/>
<path style="fill:#297a9b; stroke:none;" d="M108 218L109 219L108 218M145 218L146 219L145 218M109 219L111 221L111 219L109 219M116 219L117 229L118 229L116 219M127 219L128 220L127 219M130 219L130 220L135 220L130 219M184 219L184 220L190 220L184 219M192 219L193 220L192 219M88.6667 220.333L89.3333 220.667L88.6667 220.333M95.6667 220.333L96.3333 220.667L95.6667 220.333M145 220L145 222L147 222L147 220L145 220z"/>
<path style="fill:#e0dbdf; stroke:none;" d="M87 230C89.3319 230 91.6704 230.048 94.0015 229.985C112.295 229.496 94.4024 214.588 88.0278 222.603C86.5321 224.484 87.0079 227.768 87 230z"/>
<path style="fill:#297a9b; stroke:none;" d="M111.333 221.667L111.667 222.333L111.333 221.667M180 221L181 222L180 221M202 221L202 226L203 226L204 221L202 221M161.333 222.667L161.667 223.333L161.333 222.667M177 224L180 222L177 224M86 223L86 228L87 228L86 223z"/>
<path style="fill:#010101; stroke:none;" d="M89 223C89.5897 230.569 96.4705 229.661 102 227C99.8365 221.618 93.9897 223 89 223z"/>
<path style="fill:#297a9b; stroke:none;" d="M127 225L127 226L132 226L127 225M145 224L144 226L146 226L145 224M190.667 224.333L191.333 224.667L190.667 224.333M103 225L103 228L104 228L103 225M112 225L111 230L112 230L112 225M134 225L134 226L140 226L134 225M141.667 225.333L142.333 225.667L141.667 225.333z"/>
<path style="fill:#e0dbdf; stroke:none;" d="M184 230C188.823 231.814 193.307 231.377 195 226C190.207 225.209 186.001 224.974 184 230z"/>
<path style="fill:#297a9b; stroke:none;" d="M176 226L176 230L177 230L176 226M184 226L185 227L184 226z"/>
<path style="fill:#010101; stroke:none;" d="M127 227L127 228L139 228L127 227M142 227L143 228L142 227M186 227L187 230L194 228L186 227z"/>
<path style="fill:#297a9b; stroke:none;" d="M140 228L140 230L142 230L140 228M161 228L163 230L163 228L161 228M202 228L202 233L203 233L202 228z"/>
<path style="fill:#e0dbdf; stroke:none;" d="M285 228L286 229L285 228z"/>
<path style="fill:#297a9b; stroke:none;" d="M118 229L119 230L118 229z"/>
<path style="fill:#158eb5; stroke:none;" d="M171 229L172 230L171 229z"/>
<path style="fill:#297a9b; stroke:none;" d="M90 230L90 231L93 231L90 230M96 230L97 231L96 230M142 230L143 231L142 230M170 230L173 233L170 230M184 230L187 232L187 231L184 230M119.333 231.667L119.667 232.333L119.333 231.667M132 231L132 232L136 232L132 231M143 231L145 234L145 231L143 231M155.333 231.667L155.667 232.333L155.333 231.667M166 231L166 232L169 232L166 231z"/>
<path style="fill:#010101; stroke:none;" d="M174 231L175 232L174 231z"/>
<path style="fill:#297a9b; stroke:none;" d="M176.333 231.667L176.667 232.333L176.333 231.667M190.667 231.333L191.333 231.667L190.667 231.333z"/>
<path style="fill:#010101; stroke:none;" d="M283 231L284 232L283 231z"/>
<path style="fill:#297a9b; stroke:none;" d="M109 232L108 234L109 232M120 233L121 234L120 233M156 233L158 236L156 233M177 233L177 235L179 235L177 233M143 234L144 235L143 234M172 234L172 236L174 234L172 234M122.667 235.333L123.333 235.667L122.667 235.333M141 235L142 236L141 235M179 235L179 237L181 237L179 235M79 236C82.8043 240.354 95.4388 238 101 238L101 237L79 236M103.667 236.333L104.333 236.667L103.667 236.333M139 236L140 237L139 236M170.667 236.333L171.333 236.667L170.667 236.333M129 237L138 238L138 237L129 237M160 237L161 238L160 237M168 237L169 238L168 237M182 237L182 238L189 237L182 237M196 237L196 238L203 238L196 237M163 238L163 239L168 239L163 238z"/>
</svg>
